<?xml version="1.0" standalone="no"?>
<!DOCTYPE svg PUBLIC "-//W3C//DTD SVG 20010904//EN"
 "http://www.w3.org/TR/2001/REC-SVG-20010904/DTD/svg10.dtd">
<svg version="1.0" xmlns="http://www.w3.org/2000/svg"
 width="512.000000pt" height="512.000000pt" viewBox="0 0 512.000000 512.000000"
 preserveAspectRatio="xMidYMid meet">

<g transform="translate(0.000000,512.000000) scale(0.100000,-0.100000)"
fill="#000000" stroke="none">
<path d="M1245 5105 c-234 -51 -410 -209 -492 -440 l-28 -80 0 -2000 0 -2000
27 -80 c40 -116 92 -199 183 -290 91 -91 174 -143 290 -183 l80 -27 1497 0
c1496 0 1497 0 1524 21 53 39 69 71 69 134 0 63 -16 95 -69 134 -27 21 -32 21
-1504 26 l-1477 5 -67 32 c-93 44 -151 100 -196 191 -35 72 -37 81 -37 172 0
91 2 100 37 172 45 91 103 147 196 191 l67 32 1477 5 c1472 5 1477 5 1504 26
15 11 37 33 48 48 l21 27 0 1899 0 1899 -21 27 c-11 15 -33 37 -48 48 -27 21
-29 21 -1524 23 -1211 1 -1508 -1 -1557 -12z m179 -321 c14 -14 16 -178 16
-1662 0 -920 -4 -1653 -9 -1661 -5 -7 -46 -20 -91 -28 -44 -7 -111 -25 -148
-39 -88 -34 -125 -40 -140 -21 -10 11 -12 372 -10 1593 l3 1579 26 55 c28 59
94 132 143 157 81 42 182 55 210 27z"/>
<path d="M1375 866 c-67 -29 -105 -106 -91 -181 9 -47 59 -102 104 -115 26 -8
485 -10 1474 -8 1433 3 1437 3 1464 24 53 39 69 71 69 134 0 63 -16 95 -69
134 -27 21 -30 21 -1474 23 -1188 2 -1452 0 -1477 -11z"/>
</g>
</svg>
